<svg id="Layer_1" data-name="Layer 1" xmlns="http://www.w3.org/2000/svg" viewBox="0 0 539.26 136.07"><defs><style>.cls-1{fill:#4d5573;}</style></defs><title>Logos</title><path class="cls-1" d="M536.18,74.72c1-1.61,2.05-3.17,3.08-4.76v-.2H518c-.48,2.69-.94,5.27-1.42,7.93h1.2c.65-1.3,1.25-2.59,1.93-3.84a4.5,4.5,0,0,1,4.18-2.41c2.55,0,5.1,0,7.64,0,.25,0,.5,0,.9.08L515.94,98.66h21.17c.52-2.9,1-5.77,1.59-8.74h-1.23c-.64,1.38-1.18,2.73-1.87,4a5.51,5.51,0,0,1-5,3.08c-2.13,0-4.27,0-6.41,0-.46,0-.91,0-1.58,0,.34-.59.55-1,.78-1.34Q529.77,85.23,536.18,74.72Z"/><path class="cls-1" d="M66.92,0a68,68,0,1,0,2.73,136,67.87,67.87,0,0,0,66.62-70.59C135.11,29.6,105.88-.54,66.92,0ZM117.4,109.49a61.6,61.6,0,0,1-40.23,22.22c-19.48,2.62-36.83-2.57-51.67-15.48A61.21,61.21,0,0,1,4.7,79.28C1.32,59.1,6.36,41.1,19.74,25.52A62.53,62.53,0,0,1,34.21,13.26a9.22,9.22,0,0,0,.78-.62c-1.62,1-3.31,1.85-4.84,3Q8.22,31.49,3.86,58.23a7.93,7.93,0,0,1-2,4.36A13.72,13.72,0,0,0,.44,64.92c.09-1.35.14-2.61.28-3.87A66.28,66.28,0,0,1,15.57,25.42,66.68,66.68,0,0,1,59.07,1a65.48,65.48,0,0,1,35,4.55c3.4,1.42,6.58,3.35,9.85,5.07a3,3,0,0,1,.6.54l.21.21.71.49L103.93,13c-.07.27-.14.54-.22.81l-1.2-.81-.41-.21c-3.22-1.58-6.38-3.29-9.67-4.7a56.43,56.43,0,0,0-13.76-3.8,7.46,7.46,0,0,0-1,0c1.44.31,2.88.6,4.31.92,24.16,5.4,43.06,23.58,48.74,47.64C135.72,73.78,131.23,92.88,117.4,109.49Z"/><path class="cls-1" d="M77.66,4.23h0Z"/><polygon class="cls-1" points="103.92 13 103.93 12.99 103.94 12.99 103.92 13"/><path class="cls-1" d="M35.07,12.57l-.08.07.09-.05Z"/><path class="cls-1" d="M212.08,93.49c-.14-5.19-.24-10.37-.36-15.56s-.27-10.1-.35-15.15c0-2.19.78-3.07,2.95-3.36l2-.28V57.73H205.61L194.23,88.11H194l-11.2-30.37h-11c0,.54,0,1,.07,1.39.61.08,1.11.14,1.61.22a12.07,12.07,0,0,1,1.59.31,2.25,2.25,0,0,1,1.76,2.22,11.18,11.18,0,0,1,0,1.42q-.54,13.26-1.08,26.51c-.07,1.69-.21,3.38-.35,5.07A2.21,2.21,0,0,1,173.48,97c-.94.21-1.91.34-2.87.51v1.27h12.13V97.44c-.75-.1-1.42-.18-2.09-.28-2.24-.31-3-1.09-2.91-3.35.08-3.19.24-6.37.36-9.55q.35-9.56.68-19.11c0-.92.14-1.85.21-2.77l.24,0,13,35.19.8-.06c4.34-11.72,8.64-23.35,12.94-35a1.4,1.4,0,0,1,.3.89l.36,20.75c0,3.28.13,6.57.15,9.86,0,1.84-.67,2.67-2.46,3.07-.82.18-1.66.26-2.5.39v1.2H217V97.45l-1.48-.22C212.61,96.81,212.16,96.36,212.08,93.49Z"/><path class="cls-1" d="M444.3,77.11a4.14,4.14,0,0,1-.75-.31l1.1-.58a9.11,9.11,0,0,0,5.12-9.73A9.59,9.59,0,0,0,440,57.92c-5.84-.13-11.67-.1-17.51-.12a7,7,0,0,0-1,.12c0,.53,0,.95.08,1.4.73.09,1.37.15,2,.25,2.37.38,2.93,1,3,3.41v30.2c0,.5-.08,1-.12,1.52a2.17,2.17,0,0,1-2,2.1c-.95.18-1.91.32-2.91.49v1.42c1.54,0,3,0,4.38,0,5.05-.06,10.12.09,15.15-.27a10.87,10.87,0,0,0,10.14-7.94C452.93,85.31,450.68,78.6,444.3,77.11ZM431.85,59.94a4.89,4.89,0,0,1,.7-.12c1.86,0,3.73,0,5.6,0a5.68,5.68,0,0,1,5.75,4.53,12.74,12.74,0,0,1-.19,7.51c-.94,2.61-2.73,4.27-5.64,4.35-2,0-4.06,0-6.22,0Zm14,30.82c-.86,3.41-3,5.51-6.58,5.87a38.5,38.5,0,0,1-5.58,0,1.68,1.68,0,0,1-1.76-1.82c0-1.36-.1-2.71-.1-4.06,0-3.7,0-7.39,0-11.09v-1.4c3.2.13,6.22.08,9.2.44,2.38.29,3.86,2,4.6,4.25A14.06,14.06,0,0,1,445.81,90.76Z"/><path class="cls-1" d="M350.52,96.47c-1.51-.24-2-.86-2.08-2.39,0-.78-.06-1.56-.06-2.34q0-17,0-34a2.66,2.66,0,0,0-.09-.53l-9.19,1.64v.9c.35,0,.64.06.94.07,2.75.1,3.37.75,3.37,3.52v9.26c0,.32,0,.64-.08,1.27-.38-.55-.59-.84-.8-1.13a7,7,0,0,0-4.9-3.29A10,10,0,0,0,327,75.16a20.4,20.4,0,0,0-.46,17.5,10.49,10.49,0,0,0,6.06,6.11c3.79,1.44,8.19.88,10.69-3.21a6.5,6.5,0,0,1,.49-.65c.31,1.54.59,3,.85,4.26l8.19-1.56c0-.31,0-.57-.05-.93C351.92,96.61,351.21,96.59,350.52,96.47Zm-7.73-5.08a12.77,12.77,0,0,1-1.61,3.91,5.18,5.18,0,0,1-8.68.14A13.17,13.17,0,0,1,330.34,89c-.18-1.54-.17-3.11-.24-4.67l-.26,0c.43-2.8.81-5.6,1.31-8.39a7,7,0,0,1,1-2.11,5.32,5.32,0,0,1,9-.18,14.14,14.14,0,0,1,2.06,6.31A32.5,32.5,0,0,1,342.79,91.39Z"/><path class="cls-1" d="M509.2,94.19v-.71c0-5.12,0-10.23,0-15.35a9.36,9.36,0,0,0-1.7-5.55c-3.06-4.12-9.89-4.59-13.66-.94-.6.58-1.14,1.22-1.8,1.94-.23-1.71-.44-3.28-.64-4.79l-8.14,1.82v1c.61,0,1.11,0,1.61,0,2,0,2.57.6,2.62,2.63,0,.27,0,.55,0,.82V90.66c0,1.42,0,2.84,0,4.27a2.18,2.18,0,0,1-2.15,2.46c-.69.12-1.38.21-2.1.31v1h13.11v-1c-.7-.11-1.31-.16-1.9-.3a2.1,2.1,0,0,1-1.92-2.34c0-5.56-.08-11.12,0-16.68.08-4.36,3.08-6.83,7.41-6.3A4.18,4.18,0,0,1,503.62,75a9.41,9.41,0,0,1,.53,2.57c.09,2.23.09,4.47.09,6.71,0,3.49,0,7,0,10.47,0,1.81-.54,2.41-2.31,2.76-.55.11-1.12.15-1.77.24,0,.43.05.77.06,1h13.34V97.64c-.47,0-.87,0-1.27-.09C509.85,97.31,509.22,96.63,509.2,94.19Z"/><path class="cls-1" d="M475.93,71.54c-3.88-3.75-13.28-4-17,3.13a21.07,21.07,0,0,0-1.11,16.87c2.53,7.77,10.39,8.94,15.64,7.13,4.47-1.54,6.5-6.47,6.38-9.34h-2.14a40.13,40.13,0,0,1-1.49,4.11c-2.18,4.43-8.9,5.36-11.83,1.58-2.59-3.32-2.63-7.32-2.7-11.48h18.17a18.18,18.18,0,0,0-2.06-9.61A11.41,11.41,0,0,0,475.93,71.54Zm-14,9.68a14.2,14.2,0,0,1,.93-5.49,12.43,12.43,0,0,1,1.18-2.47,5.32,5.32,0,0,1,9.25.27A18.59,18.59,0,0,1,475,81.22Z"/><path class="cls-1" d="M375.63,90.79A22.12,22.12,0,0,1,374,94.47c-2.64,4-9.73,3.86-12-.6a18.46,18.46,0,0,1-1.74-6.73c-.1-1.17-.13-2.34-.2-3.6h18.33c-.09-3.57-.53-6.82-2.24-9.79a8.7,8.7,0,0,0-4.9-4.06c-5.74-1.86-12.1-.06-14.76,6.79A22.5,22.5,0,0,0,355.37,88a14.37,14.37,0,0,0,2.82,7.19c2.58,3.25,6.08,4.34,10.1,4.19a9.72,9.72,0,0,0,7.57-3.54,11.76,11.76,0,0,0,2.55-6.46H376A9,9,0,0,1,375.63,90.79ZM364.1,71.59a5.19,5.19,0,0,1,7.09,1.12,12.6,12.6,0,0,1,2,5.91c.12.79.16,1.6.25,2.58H360.33C360.62,77.56,361,74,364.1,71.59Z"/><path class="cls-1" d="M319.86,83.54c-.13-1.49-.17-2.77-.37-4a13.76,13.76,0,0,0-3.38-7.68c-3.74-4-13.4-4.39-17.25,2.73-2.74,5.06-2.92,10.45-1.51,15.89,1.86,7.19,7.81,9.88,14.49,8.65,5-.93,7.79-5.55,7.87-9.75h-2.13A40.19,40.19,0,0,1,316,93.54a6.71,6.71,0,0,1-6.37,3.8,6.49,6.49,0,0,1-6.32-3.66c-1.58-3.15-1.79-6.54-1.78-10.14h18.29ZM305.13,71.87c1.7-1.63,6-1.82,7.74,1.16,1.48,2.5,1.8,5.26,1.93,8.17H301.72C302,77.72,302.48,74.4,305.13,71.87Z"/><path class="cls-1" d="M242.67,78.27c-.69-3.31-2-6.28-5.21-8-4.62-2.47-12.93-2-16.05,6a22.33,22.33,0,0,0-.65,14.17c2,7.29,8,9.84,14.55,8.59,5.2-1,7.79-5.87,7.82-9.74H241a35,35,0,0,1-1.54,4.2A7.21,7.21,0,0,1,227,94.1c-1.94-3.19-2-6.8-2-10.57h18.35C243.11,81.66,243,79.94,242.67,78.27Zm-17.54,2.94c.34-3.52.75-6.89,3.49-9.4,1.71-1.57,5.89-1.74,7.66,1.22,1.49,2.5,1.81,5.26,1.94,8.18Z"/><path class="cls-1" d="M397.31,82.93c-2.28-1.19-4.69-2.12-7-3.29-3.73-1.9-2.41-6.09-.17-7.59a6.09,6.09,0,0,1,9.39,3.17c.31.92.48,1.89.73,2.89h1.27V68.69l-1.06,0-1,2.24a1,1,0,0,1-.28,0l-.71-.4a10.73,10.73,0,0,0-10.61,0c-4,2.18-5.33,8-2.4,11.28a15,15,0,0,0,4.26,2.84c2.45,1.31,5.07,2.3,7.45,3.71a4.36,4.36,0,0,1,.92,6.64,7.11,7.11,0,0,1-10.53.15,10.91,10.91,0,0,1-2.29-4.6c-.13-.47-.29-.94-.45-1.46l-1.21.15V99.41l1,0c.51-.91,1-1.75,1.52-2.68a11.38,11.38,0,0,0,6.23,2.46c3.63.22,6.87-.63,9.28-3.57,2.26-2.75,2.48-7.38.17-9.77A17.78,17.78,0,0,0,397.31,82.93Z"/><path class="cls-1" d="M289.88,89.3a45.16,45.16,0,0,1-1.57,4.56,5.64,5.64,0,0,1-5.41,3.48A5.72,5.72,0,0,1,277.52,94a12.88,12.88,0,0,1-1-2.55A31,31,0,0,1,276,80.5a15.68,15.68,0,0,1,1.94-6.57,5.93,5.93,0,0,1,10.59.13c.71,1.4,1.2,2.92,1.82,4.47.13,0,.36,0,.59,0a3.85,3.85,0,0,0,.55-.1V68.54h-1L289,71.17c-1.62-.72-3-1.72-4.55-2-4.56-.72-8.49.68-11.07,4.61-3.71,5.65-3.92,11.8-1.63,18,2,5.32,6.17,7.85,11.83,7.51,4.69-.28,9-5.35,8.48-10Z"/><path class="cls-1" d="M265.14,69.49a7,7,0,0,0-8.05,2.24c-.5.65-.92,1.35-1.46,2.15-.23-1.78-.44-3.39-.64-4.95l-8,1.36v1c.74,0,1.42.06,2.09.11,1.53.1,2.07.63,2.1,2.15s0,3.25,0,4.88c0,5.42,0,10.85,0,16.27,0,1.76-.55,2.38-2.26,2.68-.66.12-1.32.19-2.05.3v1h13.6v-1l-1.06-.08c-2.55-.18-3.23-.88-3.23-3.4,0-4.41,0-8.82,0-13.22a14.21,14.21,0,0,1,1.39-6.6,4.67,4.67,0,0,1,2.67-2.51c2.08-.68,3.17.27,2.78,2.41a2,2,0,0,0,.79,2.23A2.65,2.65,0,0,0,268,74.89,4.79,4.79,0,0,0,265.14,69.49Z"/><path class="cls-1" d="M407.12,83.81h13.62V80.75H407.12Z"/><path class="cls-1" d="M108.83,19A62.25,62.25,0,0,0,65.66,4.38a62.06,62.06,0,0,0-30.4,9.05A63.25,63.25,0,0,0,5.14,77.93c3.12,19.4,13.39,34.2,30,44.62a23,23,0,0,0,2.25,1.2h0l.65.32.86.43h0c1.07.56,2.1,1.22,3.22,1.67,1.83.72,3.69,1.36,5.54,2l.17.05.82.29,0,0,.25.09h-.12c.61.23,1.21.5,1.84.69l1.47.39.23.08.48.11,1.47.34.84.19h0a71.18,71.18,0,0,0,17.26,1.21,4.94,4.94,0,0,0,.74-.17,72.68,72.68,0,0,1-17.72-1.32l1.45-.21.74-1,.72-1a1.63,1.63,0,0,1,.3-.07q.3,0,.6.06A59,59,0,0,0,75,128.1q27-3.48,42.86-25.61c1-1.34,1.8-2.69,3.56-3a2.41,2.41,0,0,0,.51-.33l-.49-.67L115.79,95l-.1-.07-2.09-1.26-.93-.56h0L109,90.92l.07,0-.08,0h0c-2.67-1.54-5.34-3.07-8-4.64-4.6-2.71-9.2-5.45-13.8-8.18L87.3,78l-.09,0h0c-2.32-1.35-4.65-2.69-7-4l-10-5.88a4.67,4.67,0,0,0-.65-.27l-.13.24c1.35.81,2.68,1.65,4,2.44q17.51,10.24,35,20.49c.54.32,1,.71,1.55,1.07h0c-.46-.21-.93-.39-1.37-.64l-38.75-22c-.36-.21-.75-.37-1.31-.65-.1,1.74-.19,3.26-.28,4.79h-.28c-.1-1.55-.21-3.09-.32-4.81-.52.27-.82.4-1.11.56q-19.32,11-38.66,22c-1.35.77-2.74,1.48-4.11,2.21h0l-.08.05v0l.09,0a7.81,7.81,0,0,1,.79-.6c3.89-2.28,7.79-4.54,11.67-6.82q14.88-8.73,29.74-17.46a9.75,9.75,0,0,0,.84-.59l-.15-.24c-.25.13-.51.24-.75.38q-7.38,4.35-14.77,8.7c-4.64,2.72-9.32,5.38-14,8.11-3.89,2.29-7.74,4.63-11.59,7-1,.61-2,1.3-3,2h-.05v0l-2.43,1.4h0l-4.95,2.85H14.6A2.09,2.09,0,0,1,15.47,96c1.8-1.37,3.59-2.76,5.39-4.14l34-26.14,4-3.08,1.09.54,4.54,2.24c-1.45-1-2.89-2-4.35-3a1.83,1.83,0,0,1-1-1.92q1.08-8.07,2.13-16.13Q62.66,34,64,23.65,65,16.28,66,8.93a2.7,2.7,0,0,1,1.94-2.47h0s0,0,0,.07v0a2.6,2.6,0,0,1,.34.82q.1,11.09.19,22.16.12,18.2.21,36.4c0,.38.07.76.13,1.37l8.64-4.46c.38.27.69.47,1,.7l32.87,25.16c1.67,1.28,3.28,2.61,4.92,3.92h0l4.89,3.67h0c.82.38.9-.36,1.11-.79a60.53,60.53,0,0,0,6.63-28V66.13a10.59,10.59,0,0,0,1,1.29,4.31,4.31,0,0,1,1.44,3.65c-.06,1.36-.12,2.71-.25,4.06a61.75,61.75,0,0,1-10.84,29.34c-.47.68-.9,1.39-1.35,2.09a8,8,0,0,0,.81-.84c9.9-13.74,14-29,11.81-45.83A61.71,61.71,0,0,0,108.83,19ZM57.13,84.18c3.3-1.33,6.58-2.71,9.91-4a3.35,3.35,0,0,1,2.23,0c10.48,4.16,20.94,8.39,31.41,12.6l16.78,6.73,1.47.62a58.43,58.43,0,0,1-11.62,13.41A59.15,59.15,0,0,1,72.17,127.9c-28.23,1.81-47.45-15.45-54.61-27.81,1.16-.48,2.3-1,3.45-1.43ZM64.51,17c-.71,4.92-1.44,9.83-2.15,14.75S61,41.89,60.22,47c-.69,4.78-1.38,9.57-2.17,14.34A3.19,3.19,0,0,1,56.84,63C50.17,68.28,43.47,73.5,36.78,78.75L15.37,95.57a2.34,2.34,0,0,1-.43.24A48.86,48.86,0,0,1,9.91,83C6.49,68.7,7.64,54.84,14.13,41.61,25.68,18.09,49.62,7.85,65.76,8.33,65.33,11.29,64.93,14.16,64.51,17ZM121.28,95.8l-11.83-9.26L84.39,67a47.76,47.76,0,0,0-4.25-3.29c-1.63-1-2-2.42-2.26-4.13-.75-5.56-1.59-11.11-2.37-16.66-.72-5.13-1.4-10.25-2.13-15.37C72.61,22.13,71.8,16.75,71,11.36c-.15-1-.23-2-.35-3.13a50.24,50.24,0,0,1,17.79,3.31A59.47,59.47,0,0,1,118.33,35C133,57,129.32,82,121.28,95.8Z"/><path class="cls-1" d="M73.15,131.4h0Z"/><path class="cls-1" d="M64.61,65.48l-.1,0,.09.07Z"/><path class="cls-1" d="M67.48,44.05c0,7,0,13.89,0,20.84v1.74a1.34,1.34,0,0,0,.23-.73c.06-2.6.13-5.21.15-7.82q.12-14.28.21-28.56c0-7.15,0-14.3,0-21.45a11.37,11.37,0,0,0-.17-1.53c-.07,4.41-.15,8.81-.2,13.22Q67.57,31.9,67.48,44.05Z"/><path class="cls-1" d="M48.69,128.54l0,0h.06l-.05,0Z"/><path class="cls-1" d="M41,9.52l-5.9,3.05v0L41,9.53Z"/><path class="cls-1" d="M114.12,112.09l.75-.84-.76.83Z"/><path class="cls-1" d="M116,110.06l0,0-1.07,1.21Z"/><path class="cls-1" d="M110,115.94v0l2-1.83h0Z"/><path class="cls-1" d="M118.65,106.77l.15-.18h0l0,0,0,0Z"/><path class="cls-1" d="M117.14,108.6l-1.2,1.44,0,0,1.24-1.4h0l1.45-1.89-1.51,1.83Zm0,0h0Z"/><path class="cls-1" d="M79.68,130.6h0l1.83-.41h0l-1.83.41h0l-2.62.42h0Z"/><path class="cls-1" d="M96.19,125.1v0l1.61-.83h0C97.27,124.56,96.73,124.83,96.19,125.1Z"/><path class="cls-1" d="M108.83,117l1.22-1v0l-1.22,1Z"/><path class="cls-1" d="M75.19,131.2l-2,.2h0l2-.2Z"/><path class="cls-1" d="M77.05,131l-1.86.19h0l1.86-.19Z"/><path class="cls-1" d="M84.16,129.58h0l-1.6.42v0Z"/><path class="cls-1" d="M107.59,118h0l1-.81h0Z"/><path class="cls-1" d="M99,123.68h0c.34-.2.67-.41,1-.62h0Z"/><path class="cls-1" d="M42.81,8.71h0l-1,.42h0Z"/><path class="cls-1" d="M106,119.2h0l.8-.61h0Z"/><path class="cls-1" d="M106.78,118.6l.83-.61h0l-.82.61Z"/><path class="cls-1" d="M93.14,126.53h0l1-.41h0Z"/><path class="cls-1" d="M91.71,127.14h0l1-.41h0Z"/><path class="cls-1" d="M95.39,125.52l.81-.4v0l-.81.41Z"/><path class="cls-1" d="M82.55,130l-1,.19h0l1-.18Z"/><path class="cls-1" d="M85,129.37l-.82.2h0l.82-.2Z"/><path class="cls-1" d="M101.49,122.26h0l.6-.41,0,0Z"/><path class="cls-1" d="M105.15,119.81h0l.61-.4h0Z"/><path class="cls-1" d="M104.55,120.23l.61-.41h0l-.61.41Z"/><path class="cls-1" d="M103.94,120.64l.61-.41h0l-.61.4Z"/><path class="cls-1" d="M103.33,121l.61-.4v0l-.61.41Z"/><path class="cls-1" d="M102.08,121.84l0,0,.6-.42h0C102.49,121.57,102.29,121.71,102.08,121.84Z"/><path class="cls-1" d="M85.78,129.16l-.81.21h0l.81-.21Z"/><path class="cls-1" d="M91.11,127.35l.61-.2h0l-.61.2Z"/><path class="cls-1" d="M113.3,112.89h0l.4-.4h0Z"/><path class="cls-1" d="M90.08,127.75h0l.59-.21h0Z"/><path class="cls-1" d="M89.48,128l.61-.21h0l-.61.2Z"/><path class="cls-1" d="M87.06,128.76h0Z"/><path class="cls-1" d="M87,128.78h0l-.61.2v0Z"/><path class="cls-1" d="M86.42,129l-.64.19h0l.64-.18Z"/><path class="cls-1" d="M102.69,121.43h0l.42-.19h0Z"/><path class="cls-1" d="M101.09,122.46l.41-.19h0l-.41.19Z"/><path class="cls-1" d="M100.47,122.87h0l.4-.21h0Z"/><path class="cls-1" d="M100.05,123.07l.43-.19h0l-.43.19Z"/><path class="cls-1" d="M98.65,123.9l.4-.21h0l-.4.2Z"/><path class="cls-1" d="M98.24,124.1l.41-.2v0l-.41.21Z"/><path class="cls-1" d="M97.81,124.29l.43-.19h0l-.43.19Z"/><path class="cls-1" d="M95,125.73l.41-.21h0l-.41.21Z"/><path class="cls-1" d="M94.57,125.93l.41-.2h0l-.41.2Z"/><path class="cls-1" d="M92.72,126.74l.43-.2h0l-.43.2Z"/><path class="cls-1" d="M90.68,127.55l.43-.2h0l-.43.2Z"/><path class="cls-1" d="M42.8,8.7h0l.08,0Z"/><path class="cls-1" d="M41.81,9.13h0l-.41.2h0Z"/><path class="cls-1" d="M94.15,126.13l.42-.2h0l-.42.2Z"/><path class="cls-1" d="M89.48,128v0l-.08,0Z"/><path class="cls-1" d="M41.39,9.32l-.42.2h0l.42-.2Z"/><path class="cls-1" d="M65,65.68l-.41-.2v0l.41.19Z"/><path class="cls-1" d="M112.48,113.7v0l.2-.2.21-.21h0l-.21.2Z"/><path class="cls-1" d="M112.29,113.92l.2-.2v0l-.2.21Z"/><path class="cls-1" d="M112.08,114.13l.21-.21h0l-.21.21Z"/><path class="cls-1" d="M108.62,117.18l.21-.21h0l-.21.21Z"/><path class="cls-1" d="M105.77,119.42l.21-.21h0l-.21.21Z"/><path class="cls-1" d="M103.12,121.25l.21-.21h0l-.21.21Z"/><path class="cls-1" d="M100.88,122.67l.21-.21h0l-.21.21Z"/><path class="cls-1" d="M113.92,112.29l.2-.2h0l-.2.2Z"/><path class="cls-1" d="M113.71,112.5l.21-.21h0l-.21.21Z"/><path class="cls-1" d="M112.89,113.3h0l.2-.21h0l.21-.2h0l-.2.21Z"/></svg>