<svg xmlns="http://www.w3.org/2000/svg" width="22" height="25" viewBox="0 0 22 25">
    <g fill="#000" fill-rule="nonzero" opacity=".496">
        <path d="M1.719 4.844c.312 2.031.625 2.5.625 4.531 0 1.25-2.344 2.344-2.344 2.344v1.562s2.344 1.094 2.344 2.344c0 2.031-.313 2.5-.625 4.531C1.25 23.438 2.969 25 4.53 25h3.282v-3.125S5 22.188 5 20.312c0-1.406.313-1.406.625-4.53.156-1.407-.781-2.5-1.719-3.282.938-.781 1.875-1.719 1.719-3.125C5.156 6.25 5 6.25 5 4.844c0-1.875 2.813-1.719 2.813-1.719V0H4.53C2.813 0 1.25 1.563 1.72 4.844zM20.156 4.844c-.312 2.031-.625 2.5-.625 4.531 0 1.25 2.344 2.344 2.344 2.344v1.562s-2.344 1.094-2.344 2.344c0 2.031.313 2.5.625 4.531.469 3.282-1.25 4.844-2.812 4.844h-3.282v-3.125s2.813.313 2.813-1.563c0-1.406-.313-1.406-.625-4.53-.156-1.407.781-2.5 1.719-3.282-.938-.781-1.875-1.719-1.719-3.125.313-3.125.625-3.125.625-4.531 0-1.875-2.813-1.719-2.813-1.719V0h3.282c1.718 0 3.281 1.563 2.812 4.844z"/>
    </g>
</svg>
