<svg xmlns="http://www.w3.org/2000/svg" width="31" height="39" viewBox="0 0 31 39">
    <g fill="#665cd7" fill-rule="nonzero">
        <path d="M30.27.413A1.338 1.338 0 0 0 29.29 0H1.454C1.077 0 .751.138.475.413a1.338 1.338 0 0 0-.413.979V37.58c0 .377.138.703.413.979.276.275.602.413.979.413h27.837c.377 0 .703-.138.979-.413a1.34 1.34 0 0 0 .413-.98V1.393c0-.377-.138-.703-.413-.979zm-2.371 35.775h-8.35v-4.871a.67.67 0 0 0-.207-.49.67.67 0 0 0-.49-.206h-6.96a.669.669 0 0 0-.488.206.67.67 0 0 0-.207.49v4.871H2.846V2.783h25.053v33.405z"/>
        <path d="M6.325 30.62h1.392a.668.668 0 0 0 .49-.206.67.67 0 0 0 .206-.49v-1.391a.669.669 0 0 0-.207-.49.669.669 0 0 0-.489-.206H6.325a.669.669 0 0 0-.489.207.669.669 0 0 0-.206.489v1.392a.67.67 0 0 0 .206.49c.138.137.301.206.49.206zM6.325 25.053h1.392a.669.669 0 0 0 .49-.206.67.67 0 0 0 .206-.49v-1.392a.668.668 0 0 0-.207-.489.669.669 0 0 0-.489-.206H6.325a.669.669 0 0 0-.489.206.668.668 0 0 0-.206.49v1.391a.67.67 0 0 0 .206.49c.138.137.301.206.49.206zM11.893 25.053h1.392a.669.669 0 0 0 .49-.206.67.67 0 0 0 .206-.49v-1.392a.67.67 0 0 0-.207-.489.67.67 0 0 0-.49-.206h-1.39a.669.669 0 0 0-.49.206.669.669 0 0 0-.207.49v1.391a.67.67 0 0 0 .207.49c.138.137.3.206.49.206zM6.325 19.486h1.392a.668.668 0 0 0 .49-.207.669.669 0 0 0 .206-.49V17.4a.668.668 0 0 0-.207-.49.668.668 0 0 0-.489-.207H6.325a.668.668 0 0 0-.489.207.668.668 0 0 0-.206.49v1.39c0 .19.068.352.206.49.138.138.301.207.49.207zM23.028 30.62h1.392a.668.668 0 0 0 .49-.206.668.668 0 0 0 .205-.49v-1.391a.67.67 0 0 0-.206-.49.67.67 0 0 0-.49-.206h-1.391a.669.669 0 0 0-.49.207.668.668 0 0 0-.206.489v1.392c0 .188.069.351.207.49.137.137.3.206.489.206zM17.46 25.053h1.392a.67.67 0 0 0 .49-.206.671.671 0 0 0 .206-.49v-1.392a.67.67 0 0 0-.206-.489.67.67 0 0 0-.49-.206H17.46a.67.67 0 0 0-.49.206.67.67 0 0 0-.206.49v1.391c0 .189.07.352.207.49a.67.67 0 0 0 .49.206zM11.893 19.486h1.392a.669.669 0 0 0 .49-.207.67.67 0 0 0 .206-.49V17.4a.67.67 0 0 0-.207-.49.669.669 0 0 0-.49-.207h-1.39a.668.668 0 0 0-.49.207.669.669 0 0 0-.207.49v1.39a.67.67 0 0 0 .207.49c.138.138.3.207.49.207zM6.325 13.919h1.392a.669.669 0 0 0 .49-.207.668.668 0 0 0 .206-.49v-1.391a.668.668 0 0 0-.207-.49.668.668 0 0 0-.489-.206H6.325a.669.669 0 0 0-.489.207.668.668 0 0 0-.206.489v1.392c0 .188.068.351.206.489a.67.67 0 0 0 .49.207zM23.028 25.053h1.392a.67.67 0 0 0 .49-.206.668.668 0 0 0 .205-.49v-1.392a.67.67 0 0 0-.206-.489.67.67 0 0 0-.49-.206h-1.391a.669.669 0 0 0-.49.206.667.667 0 0 0-.206.49v1.391c0 .189.069.352.207.49.137.137.3.206.489.206zM17.46 19.486h1.392a.67.67 0 0 0 .49-.207.67.67 0 0 0 .206-.49V17.4a.67.67 0 0 0-.206-.49.67.67 0 0 0-.49-.207H17.46a.67.67 0 0 0-.49.207.67.67 0 0 0-.206.49v1.39c0 .19.07.352.207.49a.67.67 0 0 0 .49.207zM11.893 13.919h1.392a.67.67 0 0 0 .49-.207.669.669 0 0 0 .206-.49v-1.391a.67.67 0 0 0-.207-.49.669.669 0 0 0-.49-.206h-1.39a.669.669 0 0 0-.49.207.669.669 0 0 0-.207.489v1.392c0 .188.07.351.207.489a.67.67 0 0 0 .49.207zM6.325 8.35h1.392a.669.669 0 0 0 .49-.206.668.668 0 0 0 .206-.49v-1.39a.669.669 0 0 0-.207-.49.669.669 0 0 0-.489-.207H6.325a.669.669 0 0 0-.489.207.669.669 0 0 0-.206.49v1.391c0 .188.068.352.206.49.138.137.301.206.49.206zM23.028 19.486h1.392a.669.669 0 0 0 .49-.207.668.668 0 0 0 .205-.49V17.4a.67.67 0 0 0-.206-.49.669.669 0 0 0-.49-.207h-1.391a.668.668 0 0 0-.49.207.668.668 0 0 0-.206.49v1.39c0 .19.069.352.207.49.137.138.3.207.489.207zM17.46 13.919h1.392a.67.67 0 0 0 .49-.207.67.67 0 0 0 .206-.49v-1.391a.67.67 0 0 0-.206-.49.67.67 0 0 0-.49-.206H17.46a.67.67 0 0 0-.49.207.67.67 0 0 0-.206.489v1.392c0 .188.07.351.207.489a.671.671 0 0 0 .49.207zM11.893 8.35h1.392a.669.669 0 0 0 .49-.206.669.669 0 0 0 .206-.49v-1.39a.67.67 0 0 0-.207-.49.67.67 0 0 0-.49-.207h-1.39a.669.669 0 0 0-.49.207.67.67 0 0 0-.207.49v1.391c0 .188.07.352.207.49.138.137.3.206.49.206zM23.028 13.919h1.392a.67.67 0 0 0 .49-.207.667.667 0 0 0 .205-.49v-1.391a.669.669 0 0 0-.206-.49.67.67 0 0 0-.49-.206h-1.391a.668.668 0 0 0-.49.207.668.668 0 0 0-.206.489v1.392c0 .188.069.351.207.489.137.137.3.207.489.207zM17.46 8.35h1.392a.67.67 0 0 0 .49-.206.67.67 0 0 0 .206-.49v-1.39a.67.67 0 0 0-.206-.49.67.67 0 0 0-.49-.207H17.46a.67.67 0 0 0-.49.207.67.67 0 0 0-.206.49v1.391c0 .188.07.352.207.49a.67.67 0 0 0 .49.206zM23.028 8.35h1.392a.67.67 0 0 0 .49-.206.667.667 0 0 0 .205-.49v-1.39a.67.67 0 0 0-.206-.49.67.67 0 0 0-.49-.207h-1.391a.669.669 0 0 0-.49.207.668.668 0 0 0-.206.49v1.391c0 .188.069.352.207.49.137.137.3.206.489.206z"/>
    </g>
</svg>
