<svg xmlns="http://www.w3.org/2000/svg" width="33" height="24" viewBox="0 0 33 24">
    <path fill="#09bd1d" fill-rule="nonzero" d="M32.548 4.82a1.289 1.289 0 0 0-1.401-.178l-7.054 3.434-6.62-7.632a1.289 1.289 0 0 0-1.947 0L8.907 8.076 1.853 4.642A1.29 1.29 0 0 0 .056 6.176l4.898 16.113c.165.543.666.914 1.234.914h20.625c.567 0 1.068-.371 1.233-.914l4.898-16.113a1.289 1.289 0 0 0-.396-1.356zm-6.691 15.805H7.143L3.382 8.253l5.287 2.574a1.289 1.289 0 0 0 1.538-.314L16.5 3.256l6.293 7.257c.383.44 1.014.57 1.538.314l5.287-2.574-3.761 12.372z"/>
</svg>
