<svg xmlns="http://www.w3.org/2000/svg" width="24" height="25" viewBox="0 0 24 25">
    <path fill="#000" fill-rule="nonzero" d="M23.897 6.176v-.053c-.026-.053-.026-.106-.052-.158v-.027c-.027-.053-.08-.105-.106-.132l-.026-.026c-.027-.027-.08-.053-.106-.08l-.026-.026h-.027l-.026-.026L12.31.079a.84.84 0 0 0-.712 0L7.825 1.953l11.27 5.78.026.026c.026 0 .026.027.052.027.027.026.027.052.053.079v6.202a.277.277 0 0 1-.132.237l-2.27 1.188c-.132.08-.29.026-.37-.106-.025-.026-.025-.079-.025-.132v-5.99L5.027 3.378l-.026-.026-4.566 2.27-.026.026H.382l-.026.026c-.026.027-.08.053-.106.08l-.026.026c-.053.053-.08.105-.132.158v.027c-.026.052-.053.105-.053.158v.053c0 .052-.026.079-.026.132v12.325c0 .29.158.58.449.712l11.11 5.542c.159.08.344.106.528.053l.053-.026c.053 0 .08-.027.132-.053l11.19-5.542a.795.795 0 0 0 .449-.713V6.308c-.027-.053-.027-.08-.027-.132z" opacity=".496"/>
</svg>
