<svg xmlns="http://www.w3.org/2000/svg" width="26" height="26" viewBox="0 0 26 26">
    <path fill="#000" fill-rule="nonzero" d="M13 0C5.778 0 0 5.778 0 13s5.778 13 13 13c1.156 0 2.167-1.011 2.167-2.167 0-.577-.145-1.01-.578-1.444-.289-.433-.578-.867-.578-1.445 0-1.155 1.011-2.166 2.167-2.166h2.6c4.044 0 7.222-3.178 7.222-7.222C26 5.2 20.222 0 13 0zM5.056 13c-1.156 0-2.167-1.011-2.167-2.167 0-1.155 1.011-2.166 2.167-2.166 1.155 0 2.166 1.01 2.166 2.166S6.212 13 5.056 13zm4.333-5.778c-1.156 0-2.167-1.01-2.167-2.166S8.233 2.889 9.39 2.889c1.155 0 2.167 1.011 2.167 2.167 0 1.155-1.012 2.166-2.167 2.166zm7.222 0c-1.155 0-2.167-1.01-2.167-2.166s1.012-2.167 2.167-2.167c1.156 0 2.167 1.011 2.167 2.167 0 1.155-1.011 2.166-2.167 2.166zM20.944 13c-1.155 0-2.166-1.011-2.166-2.167 0-1.155 1.01-2.166 2.166-2.166s2.167 1.01 2.167 2.166S22.1 13 20.944 13z" opacity=".496"/>
</svg>
