<svg id="Layer_1" data-name="Layer 1" xmlns="http://www.w3.org/2000/svg" viewBox="0 0 538.8 137.11"><defs><style>.cls-1{fill:#4d5573;}</style></defs><title>Logos</title><path class="cls-1" d="M456.67,63c12-17.09,24.07-34.17,36.23-51.41L473,0,420.52,75.35l-14.2-20.29H378.48l41.94,59.47C432.59,97.22,444.62,80.11,456.67,63Z"/><path class="cls-1" d="M402.88,100.69l-24.75,35.53H405.6q5.55-7.91,11.18-16C412.16,113.75,407.6,107.33,402.88,100.69Z"/><path class="cls-1" d="M441.75,105.79l6.39-9q27.71-39,55.55-78.17l-5.3-4.25Q468.08,57.58,438,100.51,439.84,103.14,441.75,105.79Z"/><path class="cls-1" d="M484.77,72.83q-16.56,23.39-33.2,46.71l.6.84-.6-.84-3.71-5.43-3.47-4.84L442,106.12l-.49-.69L438,100.5,424.17,120l.73,1.14-.73-1.14-11.49,16.18h7.46l7.6-10.63-1.91-3c.68,1.06,1.23,1.9,1.91,3l2.79,4h0l-4.93,6.58-.08.08,1.15,0,3.65,0,2.08,0,1.66-2c-.65-.89-1.31-1.77-2-2.66l2,2.67,1.55,1.88h27.27L455,124.4c8.51-12.14,17-24.32,25.54-36.43C493.64,69.5,506.79,51.08,520,32.48l-4.47-3.3C505.14,44,495,58.41,484.77,72.83Z"/><path class="cls-1" d="M52.71,51.23c-24.06-3.8-45,9.37-50.9,30.83h0A43.41,43.41,0,0,0,.44,88.76c0,.33-.08.68-.13,1v0c0,.21,0,.43-.07.64,0,.5-.1,1-.13,1.5a52.72,52.72,0,0,0,0,6.89V99h0a44.94,44.94,0,0,0,.72,5.69c0,.17.06.33.1.5a11.2,11.2,0,0,0,.34,1.5c5.1,18.25,21.92,29.23,38.31,30l-.06,0s9.31,1.15,17.37-.65h0c9.56-1.51,18-5.33,24.8-12.49l-14-14.09c-18.1,15.09-41.48,5.61-42.45-7.81h62.2C91.92,78.9,75.21,54.78,52.71,51.23ZM25.54,85.12c0-7.85,8.92-14.7,19-14.6,9.72.1,15.94,4.71,18.18,14.6Z"/><path class="cls-1" d="M200.74,52.7c-13.82-1.84-26,1.64-34.79,13.41A26.16,26.16,0,0,0,153.15,54a19.55,19.55,0,0,0-8.8-1.78H144a32.57,32.57,0,0,0-24.69,11.09V54.47H95.76v81.62h23.6c0-14.89,0-29.6,0-44.3,0-12,5.8-18.36,16.45-18.22,11.91.16,13.29,8.15,13.2,17.51-.14,15,0,30,0,45.08h23.8c0-15.2-.08-30.29,0-45.38,0-6.07,1.44-11.84,7.24-15.1,11.74-6.61,22.27-.24,22.33,13.44.06,15.66,0,31.33,0,47h23.26c0-19,.86-37.92-.27-56.69C224.43,64.06,214.82,54.57,200.74,52.7Z"/><path class="cls-1" d="M270.49,21H246.11V51.09h-9.58v20.2h9.41a2.91,2.91,0,0,1,.16.58c0,11.48,0,22.95,0,34.43.06,18.6,7.73,28.62,23.2,30.36a34.5,34.5,0,0,0,8.32,0h.08a42.78,42.78,0,0,0,6.06-1.15l1.13-.22v-22c-8.74,3.77-13.24,3.18-13.54-2.54-.68-13.1-.21-26.25-.21-39.51H290.1V51H270.49Z"/><path class="cls-1" d="M346.83,50c-18.59-3.75-35.2.06-48.61,14.58l14.86,13.64C321.44,70,330.92,66.51,342,71.33c5.38,2.33,6.5,7.56,6.59,13.15-7.82,0-15.4,0-23,0-17.73.11-30.78,9.15-31.33,21.67-.8,18,8.36,28.66,26.22,30.48h0a39.59,39.59,0,0,0,8.63,0h.14l.57-.06a7.27,7.27,0,0,0,.81-.13,28.88,28.88,0,0,0,18-9.33v7.39h23.87c0-19.09.94-38.12-.29-57C371.31,62.5,361.66,53,346.83,50ZM333.42,117c-6,.75-13.55,2-15-7.1-.92-5.89,3.21-8.52,8.49-8.75,7.17-.31,14.36-.07,21.85-.07C349.41,112.16,342.24,115.85,333.42,117Z"/><path class="cls-1" d="M536.33.26a.33.33,0,0,0-.39.26q-1.05,2.78-2.13,5.55l-.48,1.25c-.93-2.4-1.83-4.73-2.73-7h-2.78v9.9h1.79V2.48h0c0,.07.07.13.1.2.35.93.7,1.85,1.06,2.78L532.54,10c.07.19.16.26.35.24a5.75,5.75,0,0,1,.83,0c.2,0,.28,0,.36-.24q1.38-3.63,2.78-7.26a2.44,2.44,0,0,1,.1-.24l.06,0v7.7h1.78V.26h-.29C537.78.26,537.06.27,536.33.26Z"/><path class="cls-1" d="M517.77,1.82h3v8.36h1.93V1.81h3V.28h-8Z"/><path class="cls-1" d="M444.39,109.27l3.47,4.84q31.59-44.37,63.29-88.86l-4.35-3.54c-10,14.11-19.88,28.07-29.8,42Q460.74,86.51,444.39,109.27Z"/></svg>