<svg xmlns="http://www.w3.org/2000/svg" width="30" height="30" viewBox="0 0 30 30">
    <path fill="#DFA019" fill-rule="nonzero" d="M22.353 19.066a.412.412 0 0 0-.381-.572L7.94 18.51a.413.413 0 0 0-.38.578c1.237 2.856 4.13 4.703 7.375 4.703 3.313 0 6.224-1.855 7.417-4.726zM9.248 10.814a1.79 1.79 0 1 1 3.578 0 1.79 1.79 0 0 1-3.578 0zm8.11 0a1.79 1.79 0 1 1 3.58.002 1.79 1.79 0 0 1-3.58-.002zm7.296 19.098H5.259A5.265 5.265 0 0 1 0 24.654V5.259C0 2.359 2.36 0 5.259 0h19.394c2.9 0 5.259 2.359 5.259 5.259v19.394c0 2.9-2.359 5.26-5.258 5.26zM5.259 2.475a2.787 2.787 0 0 0-2.784 2.784v19.394a2.787 2.787 0 0 0 2.784 2.784h19.394a2.787 2.787 0 0 0 2.784-2.784V5.26a2.787 2.787 0 0 0-2.784-2.784H5.26z"/>
</svg>
