<svg xmlns="http://www.w3.org/2000/svg" width="30" height="30" viewBox="0 0 30 30">
    <path fill="#ff6f34" fill-rule="nonzero" d="M28.751 18.624h-3.19v-2.369h3.19c.692 0 1.249-.557 1.249-1.249 0-.692-.557-1.249-1.249-1.249H16.249v-2.37h3.19c.692 0 1.249-.556 1.249-1.248V1.26c0-.692-.557-1.249-1.25-1.249h-8.877c-.692 0-1.249.557-1.249 1.25v8.877c0 .692.557 1.249 1.25 1.249h3.189v2.37H1.249c-.692 0-1.249.556-1.249 1.248s.557 1.25 1.249 1.25h3.19v2.301h-3.19c-.692 0-1.249.557-1.249 1.25v8.877c0 .692.557 1.249 1.249 1.249h8.884c.691 0 1.249-.557 1.249-1.25v-8.877c0-.692-.558-1.249-1.25-1.249h-3.19v-2.302h16.115v2.37h-3.19c-.691 0-1.249.557-1.249 1.248v8.878c0 .692.558 1.249 1.25 1.249h8.883c.692 0 1.249-.557 1.249-1.249v-8.878c0-.691-.557-1.249-1.249-1.249zM11.811 2.498h6.385v6.38H11.81v-6.38zM8.883 27.435H2.498v-6.38h6.386v6.38zm18.618.067h-6.386v-6.38h6.386v6.38z"/>
</svg>
