<svg xmlns="http://www.w3.org/2000/svg" width="32" height="42" viewBox="0 0 32 42">
    <g fill="#48BE93" fill-rule="nonzero">
        <path d="M30.322 23.083a3.841 3.841 0 0 0-2.734-1.132 3.84 3.84 0 0 0-2.734 1.132l-2.795 2.796a6.34 6.34 0 0 0-6.333-6.3 6.34 6.34 0 0 0-6.332 6.3l-2.796-2.796a3.842 3.842 0 0 0-2.734-1.132 3.838 3.838 0 0 0-2.733 1.132 3.87 3.87 0 0 0 0 5.468l8.093 8.094v4.125c0 .68.55 1.23 1.23 1.23h10.544c.68 0 1.23-.55 1.23-1.23v-4.125l8.094-8.094a3.87 3.87 0 0 0 0-5.468zM15.726 22.04a3.877 3.877 0 0 1 3.872 3.873 3.877 3.877 0 0 1-3.872 3.872 3.877 3.877 0 0 1-3.872-3.872 3.877 3.877 0 0 1 3.872-3.873zm12.856 4.772l-8.454 8.454c-.23.23-.36.544-.36.87v3.404h-8.083v-3.404c0-.326-.13-.64-.36-.87L2.87 26.81a1.407 1.407 0 0 1 .994-2.399c.376 0 .729.146.994.411l7.061 7.062c.231.23.544.36.87.36h5.874c.326 0 .64-.13.87-.36l7.061-7.062c.266-.265.619-.411.994-.411s.728.146.994.411c.548.548.548 1.44 0 1.988zM10.286 11.66l-.864 5.03a1.23 1.23 0 0 0 1.786 1.298l4.518-2.375 4.519 2.375c.18.095.376.142.572.142h.004a1.231 1.231 0 0 0 1.198-1.506l-.852-4.964 3.655-3.564a1.23 1.23 0 0 0-.681-2.098l-5.052-.735-2.26-4.577a1.23 1.23 0 0 0-2.206 0l-2.26 4.577-5.051.735a1.23 1.23 0 0 0-.682 2.098l3.656 3.564zm3.072-4.054c.4-.058.747-.31.926-.673l1.442-2.922 1.442 2.922c.18.363.526.615.927.673l3.224.469-2.333 2.274c-.29.283-.422.69-.354 1.09l.55 3.21-2.883-1.516a1.228 1.228 0 0 0-1.145 0l-2.885 1.517.552-3.212a1.23 1.23 0 0 0-.354-1.089l-2.334-2.275 3.225-.468z"/>
    </g>
</svg>
