<svg xmlns="http://www.w3.org/2000/svg" width="34" height="32" viewBox="0 0 34 32">
    <g fill="#D9B400" fill-rule="nonzero">
        <path d="M16.704 6.413c.583 0 1.057-.474 1.057-1.056V1.57a1.058 1.058 0 0 0-2.114 0v3.787c0 .582.475 1.056 1.057 1.056zM7.57 9.578c.199.2.464.309.747.309a1.057 1.057 0 0 0 .747-1.803L6.385 5.405c-.2-.2-.464-.309-.746-.309s-.548.11-.747.31a1.05 1.05 0 0 0 0 1.493L7.57 9.577zM25.837 24.856a1.054 1.054 0 0 0-.746-.307 1.05 1.05 0 0 0-1.053 1.054c0 .282.107.547.308.746l2.678 2.68c.2.199.465.309.746.309a1.059 1.059 0 0 0 .747-1.802l-2.68-2.68zM5.898 17.217c0-.583-.473-1.057-1.056-1.057H1.056a1.058 1.058 0 0 0 0 2.114h3.786a1.058 1.058 0 0 0 1.056-1.057zM32.352 16.16h-3.786a1.06 1.06 0 0 0-1.059 1.057 1.06 1.06 0 0 0 1.059 1.057h3.786a1.058 1.058 0 0 0 0-2.114zM8.317 24.549c-.282 0-.548.11-.748.309l-2.677 2.677a1.056 1.056 0 0 0 1.493 1.493l2.678-2.68a1.055 1.055 0 0 0-.746-1.8zM25.09 9.886c.282 0 .548-.11.748-.309l2.678-2.679c.198-.198.308-.463.308-.746a1.052 1.052 0 0 0-1.055-1.055c-.281 0-.546.11-.746.309l-2.678 2.677c-.201.2-.308.465-.308.746 0 .283.107.548.308.748.198.201.463.309.746.309zM16.746 9.517c-4.239 0-7.687 3.447-7.687 7.685 0 3.05 1.746 6.406 4.15 8.127v4.49c0 .472.319.885.776 1.003l2.501.649a1.096 1.096 0 0 0 .519 0l2.502-.65c.456-.118.775-.532.775-1.001v-4.491c2.405-1.72 4.15-5.077 4.15-8.127 0-4.238-3.449-7.685-7.686-7.685zm1.465 19.5l-1.465.38-1.464-.38v-1.263h2.929v1.262zm.436-5.096c-.406.233-.606.71-.484 1.164.013.048.028.096.046.14v.973h-2.928v-.973a1.036 1.036 0 0 0-.438-1.304c-2.082-1.197-3.713-4.146-3.713-6.718a5.621 5.621 0 0 1 5.616-5.613 5.62 5.62 0 0 1 5.613 5.613c.001 2.572-1.63 5.522-3.712 6.718z"/>
    </g>
</svg>
