<svg xmlns="http://www.w3.org/2000/svg" width="25" height="25" viewBox="0 0 25 25">
    <g fill="#000" fill-rule="nonzero" opacity=".496">
        <path d="M2.426 13.946c1.91-2.75 3.035-4.522 3.854-5.832-3.15.278-6.168 4.197-6.168 4.197l2.079 2.08a2.16 2.16 0 0 1 .235-.445zM10.542 22.742l2.078 2.077s3.918-3.019 4.197-6.168c-1.31.82-3.08 1.943-5.832 3.854-.14.097-.288.176-.443.237zM7.383 21.668c-.357.144-.707.297-1.073.419-.975.326-1.98.547-3 .687-.427.06-.858.11-1.29.142l.013-.16c.089-1.038.247-2.071.502-3.083.123-.488.28-.962.448-1.436.105-.294.236-.576.368-.858l-.229-.228a5.67 5.67 0 0 0-1.325 1.26 8.275 8.275 0 0 0-1.263 2.405c-.313.927-.5 1.908-.528 2.887-.004.137-.014.277.007.414a.963.963 0 0 0 .656.766c.14.046.282.046.428.045a9.642 9.642 0 0 0 2.64-.414c1.555-.462 3.124-1.33 4.044-2.704l-.222-.222a6.525 6.525 0 0 1-.176.08zM24.678.254a.862.862 0 0 0-.61-.253h-.017c-2.775.055-9.621.574-13.257 4.21-1.65 1.65-2.187 2.51-3.363 4.393-.847 1.356-2.006 3.212-4.125 6.262a.862.862 0 0 0 .099 1.101l5.558 5.56a.861.861 0 0 0 1.102.098c3.05-2.12 4.907-3.278 6.262-4.125 1.883-1.176 2.742-1.712 4.393-3.363C24.362 10.495 24.878 3.652 24.93.88a.863.863 0 0 0-.252-.626zM18.24 10.742a2.866 2.866 0 1 1-4.053-4.052 2.866 2.866 0 0 1 4.053 4.052z"/>
    </g>
</svg>
