<svg xmlns="http://www.w3.org/2000/svg" width="33" height="42" viewBox="0 0 33 42">
    <g fill="#665cd7" fill-rule="nonzero" transform="matrix(1 0 0 -1 0 42)">
        <path d="M14.355 36.75h3.5V42h-3.5zM25.998 33.372l2.475-2.474 3.711 3.712-2.474 2.474zM.015 34.609l3.712-3.712L6.2 33.372 2.49 37.083zM23.105 10.95v-2.2h1.75v-3.5h-1.75v-3.5A1.75 1.75 0 0 0 21.355 0h-10.5a1.75 1.75 0 0 0-1.75 1.75v3.5h-1.75v3.5h1.75v2.2a12.25 12.25 0 1 0 14 0zm-10.5-7.45h7v1.75h-7V3.5zm3.5 26.25a8.75 8.75 0 0 1-4.373-16.327c.54-.313.873-.89.873-1.515V8.75h7v3.158c0 .625.333 1.202.874 1.515a8.75 8.75 0 0 1-4.374 16.327z"/>
        <circle cx="21.355" cy="22.75" r="1.75"/>
    </g>
</svg>
