<svg id="Layer_1" data-name="Layer 1" xmlns="http://www.w3.org/2000/svg" viewBox="0 0 539.26 137.09"><defs><style>.cls-1{fill:#4d5573;}</style></defs><title>Logos</title><path class="cls-1" d="M533.14,47.51a8.11,8.11,0,0,0-4.63,2.74,10.93,10.93,0,0,0-2,3.55q-2.85,8-5.72,16c-.24.68-.51,1.35-.86,2.24-.24-.47-.41-.75-.52-1l-3.44-9q-2.45-6.49-4.91-13a7.35,7.35,0,0,0-.45-.89,8.11,8.11,0,0,0-4.58.48,8.5,8.5,0,0,0-4.28,4.89c-.45,1.1-.85,2.21-1.27,3.32l-5.3,13.82c-.21.55-.47,1.08-.71,1.62h-.21c-2.94-8-5.69-16.09-8.63-24a5,5,0,0,0-.67-.13h-9.33a3.72,3.72,0,0,0-.75.17,8.16,8.16,0,0,0,.19.94l15.33,42.61a33.32,33.32,0,0,0,7.27,0c1.53-3.94,3.08-8,4.65-12s3.06-8,4.68-12c.18,0,.28,0,.29.07q4.61,12,9.18,23.91a30.4,30.4,0,0,0,7.26,0c.1-.22.23-.49.34-.77,1.12-3.09,2.22-6.19,3.35-9.28.88-2.43,1.79-4.85,2.67-7.29,1.59-4.41,3.16-8.82,4.75-13.24q1.61-4.47,3.23-8.93c.4-1.08.82-2.15,1.23-3.23v-1.1A11.68,11.68,0,0,0,533.14,47.51Z"/><path class="cls-1" d="M216.42,61.84a21.64,21.64,0,0,0-4-7.65A20.15,20.15,0,0,0,203,47.66a19.18,19.18,0,0,0-7.86-.8,17.18,17.18,0,0,0-5.63,1.48,21,21,0,0,0-5.3,3.37,7,7,0,0,1-.82.55V48.07a5.24,5.24,0,0,0-.9-.13,12.77,12.77,0,0,0-3.79.49,10.52,10.52,0,0,0-3.44,1.85,8.05,8.05,0,0,0-2.91,6.35q0,18.06,0,36.13,0,7.09,0,14.18c0,.41.06.82.09,1.19a81.78,81.78,0,0,0,11,0v-1.36q0-16,0-32.11a34.54,34.54,0,0,1,.35-5.92,19.69,19.69,0,0,1,2.4-7,9.34,9.34,0,0,1,5.91-4.45,11.76,11.76,0,0,1,6.84.38,10.35,10.35,0,0,1,4.39,3,13.13,13.13,0,0,1,3,7A14.08,14.08,0,0,1,205,75.94a10.64,10.64,0,0,1-9.21,6.38,20.33,20.33,0,0,1-2.92,0,10,10,0,0,1-6.67-2.81c-.23-.23-.46-.42-.87-.15a9.6,9.6,0,0,0,0,6.64,9.48,9.48,0,0,0,6.54,6,17.18,17.18,0,0,0,8.4.36,19.26,19.26,0,0,0,8.54-3.95,23,23,0,0,0,8.5-15.54,33.48,33.48,0,0,0,.1-5A25.85,25.85,0,0,0,216.42,61.84Z"/><path class="cls-1" d="M323.58,65.2a7.36,7.36,0,0,1-1.66.73,27.37,27.37,0,0,1-3.24.54c-3.87.45-7.67.43-11.13-1.77a2.58,2.58,0,0,0-.91-.19,7.78,7.78,0,0,0-.33,5.48,7.24,7.24,0,0,0,3.87,4.3,15.49,15.49,0,0,0,4.88,1.36,23,23,0,0,0,6.83-.23A21.54,21.54,0,0,0,326,74.35a13.1,13.1,0,0,0,8-6.88A12.85,12.85,0,0,0,333.77,56a14.55,14.55,0,0,0-4.68-5.51,19,19,0,0,0-6.13-3,24.5,24.5,0,0,0-9.14-.74,26,26,0,0,0-9,2.37A20.08,20.08,0,0,0,298,54.64a23.72,23.72,0,0,0-5.13,13.73,24.91,24.91,0,0,0,1.4,10A20.82,20.82,0,0,0,305.86,91a22.21,22.21,0,0,0,8.71,1.78,26.35,26.35,0,0,0,11.43-2,20.75,20.75,0,0,0,8.14-6.89,4.5,4.5,0,0,0,.38-.89c-.27-.17-.44-.3-.62-.39L326.5,79a1.35,1.35,0,0,0-1.65.3,13.81,13.81,0,0,1-9,3.69,10.62,10.62,0,0,1-9.44-4.6,14.66,14.66,0,0,1-2.66-7.21A13.61,13.61,0,0,1,307.27,60a12.23,12.23,0,0,1,6.36-3.75,10.14,10.14,0,0,1,9.72,2.21A6.79,6.79,0,0,1,325,60.66,3.24,3.24,0,0,1,323.58,65.2Z"/><path class="cls-1" d="M466,57.31a23.41,23.41,0,0,0-25.14-9.83,22.44,22.44,0,0,0-11.5,7,2.61,2.61,0,0,0-.28.52l.09.21A14.43,14.43,0,0,1,436.87,54a12.43,12.43,0,0,1,7.06,3.54,12.48,12.48,0,0,1,5.2,0,10.92,10.92,0,0,1,7.33,5.15,13.62,13.62,0,0,1,1.88,8.15,12.62,12.62,0,0,1-1.8,6.07,11.14,11.14,0,0,1-8.72,5.48A11.37,11.37,0,0,1,437,77.71a11.75,11.75,0,0,1-2.06-4.93,10,10,0,0,1,.16-5.23,6.86,6.86,0,0,1,8.76-4.3l1.07.37a8.85,8.85,0,0,0-.11-1.23,7.67,7.67,0,0,0-4.66-5.29,12.62,12.62,0,0,0-9.71-.22,9.6,9.6,0,0,0-5.58,5,14.29,14.29,0,0,0-1.26,4.94,24.73,24.73,0,0,0,.68,9.33,22.91,22.91,0,0,0,3.8,7.64,22.57,22.57,0,0,0,16.74,9.1,23,23,0,0,0,10.82-1.72,23.13,23.13,0,0,0,14.12-20.61,23.39,23.39,0,0,0-1-7.38A21.56,21.56,0,0,0,466,57.31Z"/><path class="cls-1" d="M285.69,60.84a16,16,0,0,0-1.22-5.59,13.52,13.52,0,0,0-8.38-7.65,15.58,15.58,0,0,0-8.92-.49,22.24,22.24,0,0,0-3.24.92,12,12,0,0,0-5.15,3.35,5.81,5.81,0,0,1-.68.58c-.45-1.38,0-2.7-.35-3.87a73.58,73.58,0,0,0-10.81,0c0,.46-.07.9-.07,1.35V76.52c0,4.66,0,9.33,0,14,0,.41.07.82.1,1.18a61.3,61.3,0,0,0,10.84,0c0-.4.08-.84.08-1.29V61.75c0-.4,0-.8,0-1.19a3.31,3.31,0,0,1,.26-.65,7.46,7.46,0,0,0,.66.81c.57.53,1.16,1.06,1.78,1.54.18.15.48.13.77.2.07-.32.14-.52.17-.72a5.09,5.09,0,0,1,2.52-3.92,6.42,6.42,0,0,1,3.6-.82,6.31,6.31,0,0,1,4.7,2.11,7.53,7.53,0,0,1,2,4.62c.22,2.49.42,5,.45,7.48.06,6.43,0,12.87,0,19.3,0,.41.06.83.09,1.31a9.72,9.72,0,0,0,1,.09c2.93,0,5.85,0,8.78,0a10.26,10.26,0,0,0,1.07-.13c0-.51.09-1,.09-1.4q0-12,0-24C285.82,64.55,285.74,62.7,285.69,60.84Z"/><path class="cls-1" d="M374.13,77.38c-.55.61-1,1.1-1.41,1.55a11.27,11.27,0,0,1-5,2.93,15.16,15.16,0,0,1-7.77.08,10.89,10.89,0,0,1-6.58-4.59,12.71,12.71,0,0,1-2-5.15A13,13,0,0,1,353,63.15c2.14-3.55,5.52-5.3,9.47-5.85a15,15,0,0,1,8.32,1.08,9.8,9.8,0,0,1,5.38,5.2c.07.16.17.31.32.57a3.09,3.09,0,0,0,.88-.39,8.25,8.25,0,0,0,1.47-1.6,7.53,7.53,0,0,0,.71-6.26A11,11,0,0,0,374,49.13a18.69,18.69,0,0,0-6.4-2.06,24.77,24.77,0,0,0-11.81,1,21.53,21.53,0,0,0-8.61,5.36,22.94,22.94,0,0,0-5,8.07,25,25,0,0,0-1.23,11.62,21.43,21.43,0,0,0,3.7,9.92,20.16,20.16,0,0,0,5.72,5.7,22.78,22.78,0,0,0,10.24,3.6,27,27,0,0,0,11.9-1.26,19.7,19.7,0,0,0,9.22-6.77,1.19,1.19,0,0,0,.35-1.28C379.52,81.21,376.93,79.31,374.13,77.38Z"/><path class="cls-1" d="M413.31,48.27a9.41,9.41,0,0,0-10.05-.45,11,11,0,0,0-3.81,3.62c-.18.25-.38.49-.57.74l-.21-.07c-.28-1.41.08-2.88-.21-4.26a49.07,49.07,0,0,0-9.39,0c-.25.86-.38,35.11-.16,42.94,0,.29.07.59.1.84a80.1,80.1,0,0,0,11,0c0-.44.08-.86.08-1.27,0-5.73,0-11.46,0-17.19,0-2.53.11-5.06.3-7.58a9,9,0,0,1,1.92-4.76,9.32,9.32,0,0,1,5-3.4c2.63-.78,5.37-.11,6.64,2.18a2.58,2.58,0,0,0,.35.4c.24-.17.53-.27.66-.47a14.22,14.22,0,0,0,1.38-2.34,6.88,6.88,0,0,0,.1-4.48A7.43,7.43,0,0,0,413.31,48.27Z"/><path class="cls-1" d="M230.42,49.07a7.39,7.39,0,0,0-3.69,3.76,11.09,11.09,0,0,0-.86,4.64q0,9.24,0,18.47,0,7.28,0,14.54c0,.44-.11.92.26,1.29a80.63,80.63,0,0,0,10.55,0c.26-.78.27-42.82,0-43.74A12.53,12.53,0,0,0,230.42,49.07Z"/><path class="cls-1" d="M235.11,30.86a6.84,6.84,0,0,0-5.53-.82A6.46,6.46,0,0,0,225,33.89a11,11,0,0,0-.8,3.92A29.14,29.14,0,0,0,225,45a5.76,5.76,0,0,0,.82,2.53.87.87,0,0,0,.25-.07.39.39,0,0,0,.15-.11,6.84,6.84,0,0,1,4-2.39c1.14-.33,2.27-.68,3.4-1a6.59,6.59,0,0,0,4.56-4.36A7.2,7.2,0,0,0,235.11,30.86Z"/><path class="cls-1" d="M98.58,23.46a75,75,0,0,0-13-6.58,17,17,0,0,0-33.92-.1,74.67,74.67,0,0,0-13.24,6.68,2.68,2.68,0,0,0,1.44,4.95A2.64,2.64,0,0,0,41.31,28,70.35,70.35,0,0,1,52.5,22.23a17,17,0,0,0,32.23.09,70.58,70.58,0,0,1,11,5.67,2.64,2.64,0,0,0,1.44.42,2.69,2.69,0,0,0,1.45-4.95ZM68.63,27.83A10.87,10.87,0,1,1,79.5,17,10.88,10.88,0,0,1,68.63,27.83Z"/><path class="cls-1" d="M95.69,109.1a70.58,70.58,0,0,1-11,5.67,17,17,0,0,0-32.23.1,70.14,70.14,0,0,1-11.19-5.77,2.68,2.68,0,1,0-2.88,4.52,74.18,74.18,0,0,0,13.24,6.69,17,17,0,0,0,33.92-.1,74.52,74.52,0,0,0,13-6.59,2.68,2.68,0,1,0-2.89-4.52ZM68.63,131A10.87,10.87,0,1,1,79.5,120.12,10.89,10.89,0,0,1,68.63,131Z"/><path class="cls-1" d="M22.32,52.23a70.16,70.16,0,0,1,5.67-11,2.68,2.68,0,1,0-4.53-2.88,75,75,0,0,0-6.58,13,17,17,0,0,0-.1,33.92,75,75,0,0,0,6.68,13.25,2.7,2.7,0,0,0,2.27,1.24,2.73,2.73,0,0,0,1.44-.42A2.69,2.69,0,0,0,28,95.64a69.51,69.51,0,0,1-5.76-11.19,17,17,0,0,0,.09-32.22ZM17,79.19A10.87,10.87,0,1,1,27.83,68.32,10.88,10.88,0,0,1,17,79.19Z"/><path class="cls-1" d="M120.07,51.36a74.3,74.3,0,0,0-6.58-13A2.68,2.68,0,1,0,109,41.26a69.3,69.3,0,0,1,5.67,11,17,17,0,0,0,.1,32.22A70.57,70.57,0,0,1,109,95.64a2.69,2.69,0,0,0,.82,3.71,2.73,2.73,0,0,0,1.44.42,2.69,2.69,0,0,0,2.27-1.24,75,75,0,0,0,6.68-13.25,17,17,0,0,0-.1-33.92ZM120,79.19a10.87,10.87,0,1,1,10.86-10.87A10.88,10.88,0,0,1,120,79.19Z"/></svg>