<svg xmlns="http://www.w3.org/2000/svg" width="36" height="32" viewBox="0 0 36 32">
    <g fill="#ffb100" fill-rule="nonzero">
        <path d="M34.256.03H1.743C.78.03 0 .81 0 1.772V22.17c0 .963.78 1.743 1.743 1.743h12.16v3.95H9.171c-.889 0-1.612.724-1.612 1.613 0 .89.723 1.613 1.612 1.613h17.657c.89 0 1.613-.724 1.613-1.613s-.723-1.612-1.613-1.612h-4.731v-3.95h12.16c.962 0 1.743-.781 1.743-1.744V1.773C36 .81 35.22.029 34.256.029zm-.871 21.268H2.615V2.644h30.77v18.654z"/>
        <path d="M8.245 12.956l5.5 2.557a1.063 1.063 0 0 0 1.024-.068c.31-.198.494-.534.494-.901v-.028c0-.414-.243-.795-.619-.97l-3.439-1.597 3.44-1.598c.375-.175.618-.555.618-.97v-.027a1.063 1.063 0 0 0-1.07-1.068c-.155 0-.31.034-.45.099l-5.498 2.557a1.073 1.073 0 0 0-.618.969v.076c0 .414.242.794.618.97zM15.312 18.165c.2.274.523.438.863.438h.027c.467 0 .876-.299 1.018-.742l3.622-11.224a1.073 1.073 0 0 0-.154-.956 1.072 1.072 0 0 0-.863-.439h-.028c-.466 0-.875.299-1.018.742L15.157 17.21c-.103.324-.045.681.155.956zM20.737 9.382c0 .413.242.794.618.97l3.44 1.597-3.44 1.598a1.072 1.072 0 0 0-.618.969v.028a1.064 1.064 0 0 0 1.069 1.068c.156 0 .307-.033.45-.1l5.499-2.556c.375-.175.618-.556.618-.969v-.076c0-.414-.243-.795-.619-.97l-5.498-2.556a1.073 1.073 0 0 0-1.025.068c-.31.197-.494.534-.494.9v.029z"/>
    </g>
</svg>
