<svg xmlns="http://www.w3.org/2000/svg" width="183" height="32" viewBox="0 0 183 32">
    <g fill="#4D5573" fill-rule="nonzero">
        <path d="M54.81 22.324v6.487H51.62V9.568h2.486l.378 1.676c.865-1.244 2.162-1.839 3.621-1.839 3.026 0 4.81 2.055 4.81 6.27 0 4.487-2.162 6.974-6.053 6.974a6.78 6.78 0 0 1-2.053-.325zM59.673 16c0-2.594-.865-3.838-2.594-3.838-.81 0-1.675.432-2.27 1.135v6.595c.433.216.973.324 1.514.324 2.27 0 3.35-1.351 3.35-4.216zm6.43-11.676c1.298 0 2.108.811 2.108 1.946 0 1.136-.756 1.892-2.107 1.892-1.243 0-2.108-.756-2.108-1.892 0-1.135.865-1.946 2.108-1.946zm-1.566 5.298h3.188v12.81h-3.188V9.622zm14.482 12.27c-.54.378-1.945.81-3.35.81-4.053 0-6.323-2.324-6.323-6.486 0-3.892 2-6.81 6.377-6.81 1.405 0 2.702.324 3.296.702v2.703c-.973-.487-1.891-.703-2.864-.703-2.378 0-3.567 1.568-3.567 3.946 0 2.595 1.297 3.946 3.621 3.946 1.027 0 1.891-.216 2.864-.757v2.649h-.054zm6.16-4.703h-1.405v5.19h-3.188V3.188h3.188v11.406h1.568l3.242-4.973h3.512l-4.214 6.108 4.268 6.648h-3.782L85.18 17.19z"/>
        <path d="M91.934 28.216v-2.54c.433.162 1.19.216 1.73.216 1.837 0 2.756-.54 3.566-2.973l.162-.487h-1.297L92.15 9.622h3.405l2.756 9.35 2.864-9.35h3.134l-4.323 13.676c-1.189 3.783-3.026 5.242-6.106 5.242-.649 0-1.46-.108-1.946-.324zm12.43-12.108c0-4.108 1.999-6.703 5.998-6.703 3.782 0 5.782 2.379 5.782 6.541 0 4.108-2 6.757-5.998 6.757-3.675-.054-5.783-2.325-5.783-6.595zm8.484-.054c0-2.919-.811-4.108-2.594-4.108-1.73 0-2.54 1.297-2.54 4.108 0 2.919.81 4.108 2.54 4.108 1.729 0 2.594-1.243 2.594-4.108zm12.428 5.081c-.756.919-1.89 1.514-3.458 1.514-2.648 0-4.053-1.568-4.053-4.379V9.622h3.242v8.108c0 1.568.595 2.162 1.946 2.162.756 0 1.567-.324 2.107-.865V9.622h3.188v9.46c0 .756.27 1.026.811 1.026.324 0 .595-.054.81-.216v2.27c-.486.324-1.242.487-2.107.487-1.35 0-2.107-.487-2.486-1.514zm6.107-11.513h2.648l.324 2.108c.432-1.514 1.351-2.324 2.972-2.324.487 0 .973.054 1.351.216v3.08h-.864c-1.352 0-2.216.217-3.189 1.082v8.648h-3.188V9.622h-.054zm19.075 0h2.648l.325 2.108c.432-1.514 1.35-2.379 2.972-2.379.486 0 .973.055 1.351.216v3.082h-.865c-1.35 0-2.215.216-3.188 1.08v8.65h-3.188V9.621h-.055zm-4.593 13.027c-2.972 0-4.269-1.46-4.269-4.379V12h-1.73v-.865l.433-1.513h1.46l.54-3.298h2.81l-.27 3.298h3.728L147.973 12h-3.189v5.784c0 1.513.54 2.162 2 2.162.756 0 1.513-.216 2.108-.486V22c-.595.324-1.838.649-3.027.649zm19.887-1.352c-.649.865-1.73 1.406-3.189 1.406-2.377 0-3.999-1.46-3.999-3.838 0-2.487 1.514-3.946 5.08-3.946h1.892v-.487c0-1.621-.703-2.162-2.702-2.162-1.19 0-2.54.27-3.513.649V10.27c.919-.432 2.594-.756 4.215-.756 3.512 0 5.188 1.675 5.188 4.648v5.081c0 .703.27 1.027.81 1.027.27 0 .54-.054.757-.216v2.162c-.487.324-1.243.487-2.108.487-1.243-.054-2.053-.541-2.431-1.406zm-.27-1.784v-2.702h-1.298c-1.837 0-2.54.703-2.54 1.784 0 1.08.703 1.675 1.892 1.675.81.054 1.46-.216 1.945-.756zm7.943-15.189c1.297 0 2.108.811 2.108 1.946 0 1.136-.757 1.892-2.108 1.892-1.243 0-2.107-.756-2.107-1.892 0-1.135.864-1.946 2.107-1.946zm-1.567 5.298h3.188v12.81h-3.188V9.622zm5.296-6.433h3.242v15.73c0 .919.27 1.243 1.027 1.243.27 0 .594-.054.865-.216v2.216c-.433.27-1.352.432-2.108.432-1.891 0-2.972-.864-2.972-3.026V3.189h-.054zM44.273 13.514L34.203 1.622C33.493.757 32.405 0 31.152 0H6.494c-2.177 0-3.32 1.46-3.538 3.568L.45 28.432C.179 30.324 2.084 32 4.044 32h9.145l2.613-20.757c.055-.649.164-1.027.544-1.351.382-.324.817-.486 1.362-.486.38 0 .653.054.925.216l12.14 4.81c.707.27 1.197.92 1.197 1.676 0 .757-.49 1.406-1.197 1.676l-9.853 4.324c-1.362.81-1.852 1.406-2.287 3.243L17.871 32h11.65c1.633 0 2.232-.81 3.048-1.622l11.704-11.892c1.252-1.459 1.252-3.513 0-4.972z"/>
    </g>
</svg>
