<svg xmlns="http://www.w3.org/2000/svg" width="34" height="33" viewBox="0 0 34 33">
    <path fill="#1BC497" fill-rule="nonzero" stroke="#18C497" d="M33.367 12.696a.904.904 0 0 0-.725-.612l-10.111-1.437L17.98 1.5a.896.896 0 0 0-1.61.007l-4.49 9.173-10.112 1.503a.904.904 0 0 0-.725.612.888.888 0 0 0 .232.918l7.338 7.112-1.696 10.071c-.06.34.08.679.359.879a.888.888 0 0 0 .944.066l9.028-4.783 9.054 4.73c.133.066.272.1.412.1a.903.903 0 0 0 .898-.898.702.702 0 0 0-.027-.207l-1.75-10.011 7.292-7.152a.88.88 0 0 0 .24-.924zm-9.113 7.124a.888.888 0 0 0-.253.799l1.523 8.734-7.863-4.104a.91.91 0 0 0-.838 0l-7.837 4.15 1.47-8.747a.897.897 0 0 0-.259-.792l-6.36-6.173 8.775-1.304a.891.891 0 0 0 .672-.492l3.898-7.963 3.952 7.943a.914.914 0 0 0 .678.492l8.781 1.25-6.34 6.207z"/>
</svg>
