<svg xmlns="http://www.w3.org/2000/svg" width="40" height="40" viewBox="0 0 40 40">
    <g fill="#FF8B3B" fill-rule="nonzero" stroke="#FF8B3B">
        <path d="M37.033 16.002l-2.666-.452a15.051 15.051 0 0 0-1.071-2.587l1.57-2.197a2.339 2.339 0 0 0-.253-3.023L32.249 5.38a2.329 2.329 0 0 0-3.015-.254L27.03 6.696a14.895 14.895 0 0 0-2.682-1.103l-.444-2.633A2.344 2.344 0 0 0 21.587 1h-3.34c-1.15 0-2.126.825-2.317 1.96l-.46 2.697a14.68 14.68 0 0 0-2.578 1.087L10.71 5.173a2.329 2.329 0 0 0-1.364-.436c-.627 0-1.222.246-1.658.69L5.316 7.79c-.81.81-.92 2.086-.254 3.022l1.586 2.23a14.701 14.701 0 0 0-1.055 2.594l-2.634.444A2.344 2.344 0 0 0 1 18.398v3.34c0 1.15.825 2.126 1.96 2.316l2.697.46a14.68 14.68 0 0 0 1.087 2.578L5.18 29.266a2.339 2.339 0 0 0 .254 3.023l2.364 2.364a2.329 2.329 0 0 0 3.014.254l2.23-1.587c.8.42 1.642.761 2.506 1.031l.445 2.666a2.344 2.344 0 0 0 2.316 1.96h3.348c1.15 0 2.126-.826 2.317-1.96l.452-2.666a15.051 15.051 0 0 0 2.586-1.07l2.197 1.57c.397.286.873.436 1.365.436.627 0 1.214-.246 1.658-.69l2.364-2.364c.81-.81.92-2.086.254-3.022l-1.57-2.206c.435-.833.8-1.698 1.07-2.586l2.666-.444a2.344 2.344 0 0 0 1.96-2.317v-3.34a2.316 2.316 0 0 0-1.944-2.316zm-.183 5.656c0 .103-.071.19-.174.206l-3.332.556c-.42.071-.754.38-.857.785a12.7 12.7 0 0 1-1.38 3.324c-.215.365-.199.817.047 1.166l1.96 2.761a.216.216 0 0 1-.024.27l-2.364 2.364a.201.201 0 0 1-.151.063.195.195 0 0 1-.12-.04l-2.752-1.959a1.072 1.072 0 0 0-1.166-.047 12.7 12.7 0 0 1-3.324 1.38 1.053 1.053 0 0 0-.785.857l-.564 3.332a.205.205 0 0 1-.206.174h-3.34a.205.205 0 0 1-.206-.174l-.555-3.332a1.065 1.065 0 0 0-.786-.857 13.187 13.187 0 0 1-3.252-1.333 1.098 1.098 0 0 0-.54-.143c-.214 0-.436.064-.619.199l-2.776 1.975a.236.236 0 0 1-.12.04.213.213 0 0 1-.15-.064L6.95 30.797a.215.215 0 0 1-.024-.27l1.952-2.737c.246-.349.261-.809.047-1.174A12.58 12.58 0 0 1 7.53 23.3a1.086 1.086 0 0 0-.857-.785l-3.356-.571a.205.205 0 0 1-.174-.207v-3.34c0-.103.071-.19.174-.206l3.309-.555c.42-.071.761-.38.864-.793a12.687 12.687 0 0 1 1.357-3.332 1.06 1.06 0 0 0-.056-1.159L6.815 9.576a.216.216 0 0 1 .024-.27l2.364-2.364a.201.201 0 0 1 .15-.063c.048 0 .088.015.12.04l2.737 1.95c.349.247.809.263 1.174.048A12.58 12.58 0 0 1 16.7 7.521c.404-.11.714-.444.785-.857l.571-3.355a.205.205 0 0 1 .207-.175h3.34c.103 0 .19.072.206.175l.555 3.308c.071.42.38.761.793.864 1.198.302 2.34.77 3.404 1.397.365.214.817.198 1.166-.048l2.737-1.967c.04-.024.08-.04.119-.04.032 0 .095.008.15.064l2.365 2.364c.071.071.079.182.024.27l-1.96 2.752a1.072 1.072 0 0 0-.048 1.166 12.7 12.7 0 0 1 1.38 3.324c.104.413.445.722.858.786l3.332.563a.205.205 0 0 1 .174.206v3.34h-.008z"/>
        <path d="M19.992 11.79c-4.522 0-8.195 3.672-8.195 8.194s3.673 8.195 8.195 8.195 8.195-3.673 8.195-8.195-3.673-8.195-8.195-8.195zm0 14.247a6.057 6.057 0 0 1-6.053-6.053 6.057 6.057 0 0 1 6.053-6.053 6.057 6.057 0 0 1 6.053 6.053 6.057 6.057 0 0 1-6.053 6.053z"/>
    </g>
</svg>
