<svg xmlns="http://www.w3.org/2000/svg" width="34" height="33" viewBox="0 0 34 33">
    <path fill="#1BC497" fill-rule="nonzero" stroke="#18C497" d="M32.956 12.715a.896.896 0 0 0-.716-.613l-9.983-1.44L17.765 1.5a.889.889 0 0 0-.795-.5.884.884 0 0 0-.795.506l-4.433 9.19-9.983 1.506a.899.899 0 0 0-.486 1.533l7.244 7.123-1.675 10.09c-.059.339.08.679.355.879a.868.868 0 0 0 .933.066l8.912-4.79 8.939 4.737c.131.067.27.1.407.1a.898.898 0 0 0 .86-1.106l-1.727-10.03 7.199-7.163a.89.89 0 0 0 .236-.926zm-8.998 7.137a.898.898 0 0 0-.25.8l1.505 8.75-7.764-4.112a.887.887 0 0 0-.827 0l-7.737 4.158 1.451-8.763a.907.907 0 0 0-.256-.793l-6.279-6.184 8.663-1.306a.881.881 0 0 0 .664-.493l3.849-7.977 3.9 7.957c.132.266.382.446.67.493l8.67 1.253-6.259 6.217z"/>
</svg>
