<svg xmlns="http://www.w3.org/2000/svg" width="33" height="33" viewBox="0 0 33 33">
    <g fill="#FE3D83" fill-rule="nonzero">
        <path d="M32.795 1.198c-.08-.587-.394-.887-.824-.957-5.35-.867-11.387.238-20.11 9.43L5.6 5.995a.97.97 0 0 0-1.176.15L.916 9.651a.968.968 0 0 0 0 1.369l6.78 6.775c-1.488.747-2.972 1.832-4.286 3.145C-.574 24.921.03 31.771.058 32.061c.044.462.41.828.872.872 3.58.343 8.386-.609 11.129-3.35 1.315-1.314 2.4-2.796 3.147-4.283l6.78 6.777a.97.97 0 0 0 1.37 0l3.508-3.507a.968.968 0 0 0 .15-1.175l-3.676-6.25c9.057-8.58 10.224-14.386 9.457-19.947zM23.488 3.06c2.236-.954 5.048-1.195 7.452-.987.12 1.403.218 4.61-.988 7.447l-6.464-6.46zM5.264 8.043l5.263 3.092a42.966 42.966 0 0 0-2.962 3.791l-4.594-4.59 2.293-2.293zm5.425 20.17c-2.598 2.596-6.922 2.844-8.736 2.826-.02-1.812.23-6.135 2.827-8.73 1.349-1.348 2.881-2.417 4.372-3.058l1.613 1.612-3.588 3.586a.968.968 0 1 0 1.37 1.37l3.588-3.587.015.015 1.6 1.598c-.642 1.489-1.712 3.02-3.06 4.369zm11.982 1.81l-4.592-4.59a42.87 42.87 0 0 0 3.795-2.957l3.09 5.255-2.293 2.292zm-5.987-5.984l-7.725-7.72c3.006-4.487 7.874-9.27 12.75-12.3l7.284 7.28c-2.934 4.725-7.554 9.532-12.309 12.74z"/>
        <path d="M16.604 11.465a3.485 3.485 0 0 0 0 4.934 3.497 3.497 0 0 0 4.937 0 3.485 3.485 0 0 0 0-4.934 3.497 3.497 0 0 0-4.937 0zm3.567 3.565a1.556 1.556 0 0 1-2.197 0 1.55 1.55 0 0 1 0-2.196 1.556 1.556 0 0 1 2.197 0 1.55 1.55 0 0 1 0 2.196z"/>
    </g>
</svg>
