<svg xmlns="http://www.w3.org/2000/svg" width="40" height="40" viewBox="0 0 40 40">
    <path fill="#12CFC4" fill-rule="nonzero" d="M32.472 13.695l7.51-7.51-4.64-1.546L33.797 0l-7.509 7.51 1.125 3.373-1.821 1.82a15.44 15.44 0 0 0-10.084-3.735C6.957 8.968 0 15.924 0 24.475c0 8.55 6.956 15.507 15.507 15.507 8.55 0 15.507-6.957 15.507-15.507a15.44 15.44 0 0 0-3.736-10.084l1.82-1.821 3.374 1.125zm.282-9.279l.703 2.11 2.108.702-3.737 3.737-2.109-.703-.702-2.109 3.737-3.737zm-4.126 20.059c0 7.235-5.886 13.12-13.121 13.12S2.386 31.71 2.386 24.476c0-7.235 5.886-13.122 13.121-13.122 3.189 0 6.115 1.144 8.392 3.043l-3.394 3.394a8.306 8.306 0 0 0-4.998-1.665c-4.604 0-8.35 3.746-8.35 8.35 0 4.604 3.746 8.35 8.35 8.35 4.604 0 8.35-3.746 8.35-8.35 0-1.873-.62-3.604-1.665-4.998l3.394-3.394a13.061 13.061 0 0 1 3.042 8.392zm-7.157 0a5.971 5.971 0 0 1-5.964 5.964 5.971 5.971 0 0 1-5.964-5.964 5.971 5.971 0 0 1 5.964-5.965c1.214 0 2.343.366 3.286.991l-2.669 2.67a2.388 2.388 0 0 0-3.003 2.304 2.388 2.388 0 0 0 2.386 2.385 2.388 2.388 0 0 0 2.304-3.003l2.67-2.67c.625.944.99 2.074.99 3.288z"/>
</svg>
