<svg id="Layer_1" data-name="Layer 1" xmlns="http://www.w3.org/2000/svg" viewBox="0 0 395.19 135.95"><defs><style>.cls-1{fill:#4d5573;}</style></defs><title>Logos</title><path class="cls-1" d="M118.36,44.41H107.12v3.28q0,35.55,0,71.09c0,3.07-1,4.08-4,4.08q-42,0-84-.06a4.78,4.78,0,0,1-3.59-1.71c-.5-.81,0-2.66.65-3.7Q35.49,86,55,54.78C61.76,43.89,68.6,33,75.3,22.09,80.86,13,74.88,1.76,64.43,1.72c-20.63-.09-41.27,0-61.9,0A7.94,7.94,0,0,0,0,2.63V12.69a19.4,19.4,0,0,0,3.17.52q28.08,0,56.17,0c.65,0,1.31,0,2,0,2.93.18,4.14,2.33,2.61,4.82-2.85,4.66-5.8,9.26-8.71,13.88Q28.86,73.7,2.54,115.48A42.9,42.9,0,0,0,0,121.22v2.63c2.05,7.33,5.8,10.55,12.43,10.55q46.05,0,92.1,0a13.67,13.67,0,0,0,14.12-14.08q0-36.64,0-73.29A23.94,23.94,0,0,0,118.36,44.41Z"/><path class="cls-1" d="M217.53,71.72c-3-3-7.06-5-10.71-7.51a4.89,4.89,0,0,1,.62-.38A28.47,28.47,0,0,0,222,45.8c3.78-13.33,1.76-25.5-8.32-35.53C207.21,3.83,198.79,1.85,190,1.74c-15-.18-30-.07-45.07,0-7.93,0-13.73,5.91-13.73,13.88q0,52.38,0,104.78c0,8.2,5.78,14,14,14q20.35,0,40.69,0a94.5,94.5,0,0,0,9.82-.41c14.4-1.52,24.8-8.66,29.8-22.46C230.87,96.76,228.69,83.15,217.53,71.72ZM143.3,21.84c0-6.28,2.34-8.61,8.56-8.61h17.27c7.43,0,14.89-.09,22.27.51,11.21.91,19.37,10.3,19.87,21.93a22.65,22.65,0,0,1-17.89,23.26,43.74,43.74,0,0,1-8.24.79c-11.08.09-22.15,0-33.23,0-6.22,0-8.6-2.39-8.61-8.62Q143.28,36.49,143.3,21.84Zm72.3,76c-.54,11.61-7.51,23.23-22.75,24.52-7.52.64-15.14.49-22.71.49,0,.13,0-.13,0,0h-19c-5,0-7.71-2.45-7.75-7.43q-.18-18.5,0-37c0-4.79,2.7-7.14,7.48-7.14,12.91,0,25.81-.07,38.72,0C205.06,71.44,216.31,82.7,215.6,97.86Z"/><path class="cls-1" d="M289.84,12.48A39.68,39.68,0,0,0,286,4.68c-2.61-4-6.24-4.07-8.92-.08a38.44,38.44,0,0,0-4,8q-22.32,59.55-44.49,119.15c-.26.71-.42,1.45-.7,2.47h12.91L281.12,26.13l.66-.08Q302,80.2,322.17,134.16H335c-.28-1.06-.41-1.83-.68-2.54Q312.12,72,289.84,12.48Z"/><path class="cls-1" d="M376.13,115.29c2.66-1.9,4.5-4.06,4.68-7.25.31-5.61-3.16-10-9.25-10.79a104.69,104.69,0,0,0-14.18-.42,3.67,3.67,0,0,0-3.95,3.82q-.07,15.64,0,31.29a3.59,3.59,0,0,0,3.89,3.8,121.6,121.6,0,0,0,12.23-.1,21,21,0,0,0,7.45-2.21c4-2,5.71-6.31,4.93-10.75A9.83,9.83,0,0,0,376.13,115.29Zm-18.36-13.76a6.52,6.52,0,0,1,2-.63c3.56,0,7.15,0,10.68.35,4.35.48,6.68,3.62,5.85,7.31a5.18,5.18,0,0,1-4.51,4.23c-4.23.5-8.53.51-12.8.66-.37,0-.75-.38-1.22-.63Zm15.42,29.13a49.07,49.07,0,0,1-9,1.05c-2.05.14-4.12,0-6.34,0V117.81c5.25,0,10.19-.77,15,.67,3.21,1,4.74,3,4.8,6S376.42,129.79,373.19,130.66Z"/><path class="cls-1" d="M356.07,21.73h21.56v17h4V0h-4.08V16.91H355.94V0h-4V38.67h4.17Z"/><path class="cls-1" d="M361.31,86.84a39.47,39.47,0,0,0,11.07,0c5.28-.77,8.21-4,8.4-9.38.33-9.17.26-18.35.34-27.53a6.34,6.34,0,0,0-.3-1.3h-4.09v2.8c0,7.65,0,15.3,0,23-.06,5.84-2.82,8.59-8.56,8.79-8.67.3-11.34-2.3-11.38-11.15,0-6.93,0-13.85,0-20.78,0-.85-.07-1.7-.11-2.66h-3.82a4.62,4.62,0,0,0-.25,1c0,9.25-.12,18.51.2,27.76C353,82.72,356,86.08,361.31,86.84Z"/><path class="cls-1" d="M118.4,1.92H107.35V13H118.4Z"/><polygon class="cls-1" points="386.2 131.8 387.66 131.8 387.66 136.07 388.54 136.07 388.54 131.8 390.01 131.8 390.01 131.02 386.2 131.02 386.2 131.8"/><path class="cls-1" d="M395,131h-1l-.88,2.41c-.17.48-.3.87-.4,1.21-.1-.35-.22-.74-.38-1.21L391.5,131h-1l-.35,4.92v.13H391l.13-2.17c0-.44.05-.9.07-1.34.09.33.21.69.35,1.11l.81,2.37H393l.87-2.41c.15-.41.28-.78.4-1.14,0,.43,0,.89.06,1.32l.13,2.26h.85l-.3-4.93Z"/></svg>